<svg width="164" height="35" viewBox="0 0 164 35" fill="none" xmlns="http://www.w3.org/2000/svg">
<g filter="url(#filter0_d_18_17)">
<path d="M17.7486 3.152V6.44H13.2846V20H9.18063V6.44H4.71663V3.152H17.7486ZM18.9923 13.28C18.9923 11.904 19.2483 10.696 19.7603 9.656C20.2883 8.616 21.0003 7.816 21.8963 7.256C22.7923 6.696 23.7923 6.416 24.8963 6.416C25.8403 6.416 26.6643 6.608 27.3683 6.992C28.0883 7.376 28.6403 7.88 29.0243 8.504V6.608H33.1283V20H29.0243V18.104C28.6243 18.728 28.0643 19.232 27.3443 19.616C26.6403 20 25.8163 20.192 24.8723 20.192C23.7843 20.192 22.7923 19.912 21.8963 19.352C21.0003 18.776 20.2883 17.968 19.7603 16.928C19.2483 15.872 18.9923 14.656 18.9923 13.28ZM29.0243 13.304C29.0243 12.28 28.7363 11.472 28.1603 10.88C27.6003 10.288 26.9123 9.992 26.0963 9.992C25.2803 9.992 24.5843 10.288 24.0083 10.88C23.4483 11.456 23.1683 12.256 23.1683 13.28C23.1683 14.304 23.4483 15.12 24.0083 15.728C24.5843 16.32 25.2803 16.616 26.0963 16.616C26.9123 16.616 27.6003 16.32 28.1603 15.728C28.7363 15.136 29.0243 14.328 29.0243 13.304ZM41.5454 20.192C40.3774 20.192 39.3374 19.992 38.4254 19.592C37.5134 19.192 36.7934 18.648 36.2654 17.96C35.7374 17.256 35.4414 16.472 35.3774 15.608H39.4334C39.4814 16.072 39.6974 16.448 40.0814 16.736C40.4654 17.024 40.9374 17.168 41.4974 17.168C42.0094 17.168 42.4014 17.072 42.6734 16.88C42.9614 16.672 43.1054 16.408 43.1054 16.088C43.1054 15.704 42.9054 15.424 42.5054 15.248C42.1054 15.056 41.4574 14.848 40.5614 14.624C39.6014 14.4 38.8014 14.168 38.1614 13.928C37.5214 13.672 36.9694 13.28 36.5054 12.752C36.0414 12.208 35.8094 11.48 35.8094 10.568C35.8094 9.8 36.0174 9.104 36.4334 8.48C36.8654 7.84 37.4894 7.336 38.3054 6.968C39.1374 6.6 40.1214 6.416 41.2574 6.416C42.9374 6.416 44.2574 6.832 45.2174 7.664C46.1934 8.496 46.7534 9.6 46.8974 10.976H43.1054C43.0414 10.512 42.8334 10.144 42.4814 9.872C42.1454 9.6 41.6974 9.464 41.1374 9.464C40.6574 9.464 40.2894 9.56 40.0334 9.752C39.7774 9.928 39.6494 10.176 39.6494 10.496C39.6494 10.88 39.8494 11.168 40.2494 11.36C40.6654 11.552 41.3054 11.744 42.1694 11.936C43.1614 12.192 43.9694 12.448 44.5934 12.704C45.2174 12.944 45.7614 13.344 46.2254 13.904C46.7054 14.448 46.9534 15.184 46.9694 16.112C46.9694 16.896 46.7454 17.6 46.2974 18.224C45.8654 18.832 45.2334 19.312 44.4014 19.664C43.5854 20.016 42.6334 20.192 41.5454 20.192Z" fill="#C06C84"/>
<path d="M57.6642 20L53.5842 14.384V20H49.4802V2.24H53.5842V12.056L57.6402 6.608H62.7042L57.1362 13.328L62.7522 20H57.6642Z" fill="#F28F3B"/>
<path d="M70.4121 20.168C69.1801 20.168 68.0761 19.968 67.1001 19.568C66.1241 19.168 65.3401 18.576 64.7481 17.792C64.1721 17.008 63.8681 16.064 63.8361 14.96H68.2041C68.2681 15.584 68.4841 16.064 68.8521 16.4C69.2201 16.72 69.7001 16.88 70.2921 16.88C70.9001 16.88 71.3801 16.744 71.7321 16.472C72.0841 16.184 72.2601 15.792 72.2601 15.296C72.2601 14.88 72.1161 14.536 71.8281 14.264C71.5561 13.992 71.2121 13.768 70.7961 13.592C70.3961 13.416 69.8201 13.216 69.0681 12.992C67.9801 12.656 67.0921 12.32 66.4041 11.984C65.7161 11.648 65.1241 11.152 64.6281 10.496C64.1321 9.84 63.8841 8.984 63.8841 7.928C63.8841 6.36 64.4521 5.136 65.5881 4.256C66.7241 3.36 68.2041 2.912 70.0281 2.912C71.8841 2.912 73.3801 3.36 74.5161 4.256C75.6521 5.136 76.2601 6.368 76.3401 7.952H71.9001C71.8681 7.408 71.6681 6.984 71.3001 6.68C70.9321 6.36 70.4601 6.2 69.8841 6.2C69.3881 6.2 68.9881 6.336 68.6841 6.608C68.3801 6.864 68.2281 7.24 68.2281 7.736C68.2281 8.28 68.4841 8.704 68.9961 9.008C69.5081 9.312 70.3081 9.64 71.3961 9.992C72.4841 10.36 73.3641 10.712 74.0361 11.048C74.7241 11.384 75.3161 11.872 75.8121 12.512C76.3081 13.152 76.5561 13.976 76.5561 14.984C76.5561 15.944 76.3081 16.816 75.8121 17.6C75.3321 18.384 74.6281 19.008 73.7001 19.472C72.7721 19.936 71.6761 20.168 70.4121 20.168ZM87.3138 6.464C88.8498 6.464 90.0818 6.976 91.0098 8C91.9378 9.008 92.4018 10.4 92.4018 12.176V20H88.3218V12.728C88.3218 11.832 88.0898 11.136 87.6258 10.64C87.1618 10.144 86.5378 9.896 85.7538 9.896C84.9698 9.896 84.3458 10.144 83.8818 10.64C83.4178 11.136 83.1858 11.832 83.1858 12.728V20H79.0818V2.24H83.1858V8.408C83.6018 7.816 84.1698 7.344 84.8898 6.992C85.6098 6.64 86.4178 6.464 87.3138 6.464ZM94.4376 13.28C94.4376 11.904 94.6936 10.696 95.2056 9.656C95.7336 8.616 96.4456 7.816 97.3416 7.256C98.2376 6.696 99.2376 6.416 100.342 6.416C101.286 6.416 102.11 6.608 102.814 6.992C103.534 7.376 104.086 7.88 104.47 8.504V6.608H108.574V20H104.47V18.104C104.07 18.728 103.51 19.232 102.79 19.616C102.086 20 101.262 20.192 100.318 20.192C99.2296 20.192 98.2376 19.912 97.3416 19.352C96.4456 18.776 95.7336 17.968 95.2056 16.928C94.6936 15.872 94.4376 14.656 94.4376 13.28ZM104.47 13.304C104.47 12.28 104.182 11.472 103.606 10.88C103.046 10.288 102.358 9.992 101.542 9.992C100.726 9.992 100.03 10.288 99.4536 10.88C98.8936 11.456 98.6136 12.256 98.6136 13.28C98.6136 14.304 98.8936 15.12 99.4536 15.728C100.03 16.32 100.726 16.616 101.542 16.616C102.358 16.616 103.046 16.32 103.606 15.728C104.182 15.136 104.47 14.328 104.47 13.304Z" fill="#F0A500"/>
<path d="M115.647 8.84C116.127 8.104 116.727 7.528 117.447 7.112C118.167 6.68 118.967 6.464 119.847 6.464V10.808H118.719C117.695 10.808 116.927 11.032 116.415 11.48C115.903 11.912 115.647 12.68 115.647 13.784V20H111.543V6.608H115.647V8.84ZM123.872 5.216C123.152 5.216 122.56 5.008 122.096 4.592C121.648 4.16 121.424 3.632 121.424 3.008C121.424 2.368 121.648 1.84 122.096 1.424C122.56 0.991999 123.152 0.775999 123.872 0.775999C124.576 0.775999 125.152 0.991999 125.6 1.424C126.064 1.84 126.296 2.368 126.296 3.008C126.296 3.632 126.064 4.16 125.6 4.592C125.152 5.008 124.576 5.216 123.872 5.216ZM125.912 6.608V20H121.808V6.608H125.912Z" fill="#F0F2A6"/>
<path d="M137.046 6.464C138.614 6.464 139.862 6.976 140.79 8C141.734 9.008 142.206 10.4 142.206 12.176V20H138.126V12.728C138.126 11.832 137.894 11.136 137.43 10.64C136.966 10.144 136.342 9.896 135.558 9.896C134.774 9.896 134.15 10.144 133.686 10.64C133.222 11.136 132.99 11.832 132.99 12.728V20H128.886V6.608H132.99V8.384C133.406 7.792 133.966 7.328 134.67 6.992C135.374 6.64 136.166 6.464 137.046 6.464Z" fill="#6A1B9A"/>
<path d="M150.146 6.416C151.09 6.416 151.914 6.608 152.618 6.992C153.338 7.376 153.89 7.88 154.274 8.504V6.608H158.378V19.976C158.378 21.208 158.13 22.32 157.634 23.312C157.154 24.32 156.41 25.12 155.402 25.712C154.41 26.304 153.17 26.6 151.682 26.6C149.698 26.6 148.09 26.128 146.858 25.184C145.626 24.256 144.922 22.992 144.746 21.392H148.802C148.93 21.904 149.234 22.304 149.714 22.592C150.194 22.896 150.786 23.048 151.49 23.048C152.338 23.048 153.01 22.8 153.506 22.304C154.018 21.824 154.274 21.048 154.274 19.976V18.08C153.874 18.704 153.322 19.216 152.618 19.616C151.914 20 151.09 20.192 150.146 20.192C149.042 20.192 148.042 19.912 147.146 19.352C146.25 18.776 145.538 17.968 145.01 16.928C144.498 15.872 144.242 14.656 144.242 13.28C144.242 11.904 144.498 10.696 145.01 9.656C145.538 8.616 146.25 7.816 147.146 7.256C148.042 6.696 149.042 6.416 150.146 6.416ZM154.274 13.304C154.274 12.28 153.986 11.472 153.41 10.88C152.85 10.288 152.162 9.992 151.346 9.992C150.53 9.992 149.834 10.288 149.258 10.88C148.698 11.456 148.418 12.256 148.418 13.28C148.418 14.304 148.698 15.12 149.258 15.728C149.834 16.32 150.53 16.616 151.346 16.616C152.162 16.616 152.85 16.32 153.41 15.728C153.986 15.136 154.274 14.328 154.274 13.304Z" fill="#D81B60"/>
<path d="M4.14062 22.4H143.738V23.6H4.14062V22.4ZM159.208 22.4H159.866V23.6H159.208V22.4Z" fill="#D81B60"/>
</g>
<defs>
<filter id="filter0_d_18_17" x="0.140625" y="0.775999" width="163.726" height="33.824" filterUnits="userSpaceOnUse" color-interpolation-filters="sRGB">
<feFlood flood-opacity="0" result="BackgroundImageFix"/>
<feColorMatrix in="SourceAlpha" type="matrix" values="0 0 0 0 0 0 0 0 0 0 0 0 0 0 0 0 0 0 127 0" result="hardAlpha"/>
<feOffset dy="4"/>
<feGaussianBlur stdDeviation="2"/>
<feComposite in2="hardAlpha" operator="out"/>
<feColorMatrix type="matrix" values="0 0 0 0 0 0 0 0 0 0 0 0 0 0 0 0 0 0 0.25 0"/>
<feBlend mode="normal" in2="BackgroundImageFix" result="effect1_dropShadow_18_17"/>
<feBlend mode="normal" in="SourceGraphic" in2="effect1_dropShadow_18_17" result="shape"/>
</filter>
</defs>
</svg>
